<svg width="886" height="283" viewBox="0 0 886 283" fill="none" xmlns="http://www.w3.org/2000/svg">
<path fill-rule="evenodd" clip-rule="evenodd" d="M273.5 0H413.5H792V0.00527954C792.333 0.00177002 792.666 0 793 0C844.362 0 886 41.6375 886 93C886 144.362 844.362 186 793 186C780.968 186 769.47 183.715 758.916 179.556C743.186 191.745 723.44 199 702 199C696.909 199 691.914 198.591 687.045 197.804C665.663 228.735 629.948 249 589.5 249C565.424 249 543.025 241.82 524.327 229.484C498.405 262.093 458.394 283 413.5 283C373.337 283 337.082 266.267 311.327 239.392C296.995 253.964 277.053 263 255 263C217.851 263 186.69 237.358 178.253 202.808C148.973 197.67 125.245 176.41 116.56 148.517C105.389 154.566 92.5953 158 79 158C35.3695 158 0 122.63 0 79C0 35.3695 35.3695 0 79 0H273.5Z" fill="white"/>
</svg>
